<svg width="32" height="32" viewBox="0 0 32 32" fill="none" xmlns="http://www.w3.org/2000/svg">
<path d="M5.22132 16.3962L15.664 9.93576C15.9007 9.8063 16.2028 9.8063 16.4395 9.93576L26.9339 16.3962V8.68818C26.9912 7.6312 26.0436 6.7343 24.8173 6.68484C24.7991 6.68407 24.7809 6.68356 24.7626 6.68322H7.39258C6.1652 6.70667 5.19222 7.58319 5.21944 8.6411C5.21983 8.6568 5.22042 8.67249 5.22132 8.68818V16.3962Z" fill="#011C40"/>
<path d="M18.6624 0H13.4928V5.34662H18.6624V0Z" fill="#011C40"/>
<path d="M28.7948 30.1638L32 21.03L27.5024 18.3122L27.1922 18.1785L16.5944 11.8072V30.6094H16.0258L15.0435 30.5649V11.8072L0 21.03L3.3086 30.1193L5.21944 31.9904C5.21944 31.9904 6.82951 31.9904 8.48376 31.9904C8.48376 31.9904 14.5146 31.997 16.0259 31.9904C17.5642 32.012 20.2964 31.9904 20.2964 31.9904H27.0373L28.7948 30.1638Z" fill="#011C40"/>
</svg>
